<?xml version="1.0" encoding="UTF-8" standalone="no"?>
<!-- Created with Inkscape (http://www.inkscape.org/) -->

<svg
   width="250.77113mm"
   height="332.33551mm"
   viewBox="0 0 250.77113 332.33551"
   version="1.1"
   id="svg5"
   xml:space="preserve"
   inkscape:version="1.2.2 (b0a8486541, 2022-12-01)"
   sodipodi:docname="Debian.svg"
   xmlns:inkscape="http://www.inkscape.org/namespaces/inkscape"
   xmlns:sodipodi="http://sodipodi.sourceforge.net/DTD/sodipodi-0.dtd"
   xmlns="http://www.w3.org/2000/svg"
   xmlns:svg="http://www.w3.org/2000/svg"
   xmlns:i="http://ns.adobe.com/AdobeIllustrator/10.0/"><sodipodi:namedview
     id="namedview7"
     pagecolor="#505050"
     bordercolor="#eeeeee"
     borderopacity="1"
     inkscape:showpageshadow="0"
     inkscape:pageopacity="0"
     inkscape:pagecheckerboard="0"
     inkscape:deskcolor="#505050"
     inkscape:document-units="mm"
     showgrid="false"
     inkscape:zoom="0.2102413"
     inkscape:cx="875.18484"
     inkscape:cy="815.72935"
     inkscape:window-width="1920"
     inkscape:window-height="1016"
     inkscape:window-x="0"
     inkscape:window-y="27"
     inkscape:window-maximized="1"
     inkscape:current-layer="layer1" /><defs
     id="defs2">
		
	
			
			
			
			
			
			
			
			
			
			
			
			
			
			
			
			
			
			
			
		</defs><g
     inkscape:label="Layer 1"
     inkscape:groupmode="layer"
     id="layer1"
     transform="translate(34.33695,65.244467)"><g
       id="g570"
       transform="matrix(1.2232544,0,0,1.2232544,-18.9647,53.561114)"><path
         i:knockout="Off"
         fill="#a80030"
         d="m 106.24365,44.61403 c -3.44482,0.04612 0.64792,1.770833 5.14648,2.46487 1.24743,-0.973035 2.36803,-1.950682 3.37335,-2.905272 -2.7969,0.684814 -5.64684,0.700955 -8.51983,0.440402"
         id="path215"
         style="stroke-width:2.30577" /><path
         i:knockout="Off"
         fill="#a80030"
         d="m 124.72902,40.004793 c 2.05906,-2.833794 3.5532,-5.932751 4.08122,-9.137774 -0.46346,2.282714 -1.69705,4.254149 -2.86838,6.338567 -6.44002,4.055852 -0.60872,-2.407226 -0.005,-4.867485 -6.92193,8.722735 -0.95459,5.229491 -1.20823,7.666692"
         id="path217"
         style="stroke-width:2.30577" /><path
         i:knockout="Off"
         fill="#a80030"
         d="m 131.56103,22.241127 c 0.41965,-6.204832 -1.21976,-4.240315 -1.77084,-1.876899 0.64101,0.336643 1.15058,4.376355 1.77084,1.876899"
         id="path219"
         style="stroke-width:2.30577" /><path
         i:knockout="Off"
         fill="#a80030"
         d="m 93.174536,-62.562854 c 1.840006,0.327419 3.975151,0.581054 3.668483,1.021457 2.019856,-0.445014 2.474093,-0.846219 -3.668483,-1.021457"
         id="path221"
         style="stroke-width:2.30577" /><path
         i:knockout="Off"
         fill="#a80030"
         d="m 96.845325,-61.541397 -1.293538,0.269775 1.205919,-0.110677 0.08762,-0.159098"
         id="path223"
         style="stroke-width:2.30577" /><path
         i:knockout="Off"
         fill="#a80030"
         d="m 154.18756,24.593014 c 0.20752,5.570745 -1.62557,8.277721 -3.28342,13.064503 l -2.98136,1.482611 c -2.4372,4.736055 0.24211,3.006727 -1.50336,6.772052 -3.80914,3.382567 -11.54269,10.581187 -14.01909,11.240637 -1.81003,-0.0392 1.22436,-2.135144 1.62095,-2.953693 -5.09345,3.49555 -4.08813,5.247936 -11.87933,7.376164 l -0.22597,-0.509576 C 102.7089,70.104338 76.026511,52.195408 76.376989,27.76345 76.174081,29.312929 75.793628,28.925559 75.369366,29.548117 74.377885,16.979355 81.1753,4.3552548 92.639597,-0.80736828 103.85257,-6.3550552 116.99777,-4.0815642 125.02416,3.4098883 120.61553,-2.3683758 111.83284,-8.4948115 101.43151,-7.9275916 91.237688,-7.761576 81.69871,-1.284663 78.516745,5.7502467 73.296478,9.0359715 72.687754,18.422769 70.414263,20.142874 c -3.064371,22.504333 5.757512,32.223161 20.682773,43.662095 2.342664,1.58176 0.659451,1.823866 0.973036,3.027478 -4.95741,-2.319606 -9.495169,-5.824379 -13.230519,-10.11542 1.982964,2.898355 4.120414,5.716008 6.885035,7.929549 -4.678411,-1.579454 -10.924747,-11.328257 -12.744001,-11.72485 8.058672,14.42952 32.691233,25.305846 45.596633,19.908034 -5.97194,0.221354 -13.55563,0.122206 -20.260813,-2.356499 -2.82457,-1.45033 -6.649845,-4.450139 -5.965031,-5.010442 17.606874,6.573755 35.790194,4.975856 51.022114,-7.233206 3.87831,-3.020561 8.11171,-8.155515 9.33607,-8.224688 -1.84231,2.771538 0.31589,1.332736 -1.09985,3.77916 3.85525,-6.22789 -1.68091,-2.536349 3.98899,-10.75412 l 2.09364,2.882215 c -0.78397,-5.174152 6.42157,-11.450463 5.68834,-19.62673 1.65323,-2.499456 1.84231,2.693142 0.0899,8.443737 2.43259,-6.380071 0.64331,-7.406139 1.26587,-12.672522 0.67098,1.770833 1.56331,3.650037 2.01755,5.520018 -1.58637,-6.16794 1.62096,-10.382891 2.41875,-13.968366 -0.78857,-0.345866 -2.44642,2.725422 -2.82918,-4.5562051 0.0576,-3.1635189 0.88311,-1.6578499 1.199,-2.4372008 -0.61794,-0.3573946 -2.24812,-2.7830665 -3.2373,-7.43380824 0.71248,-1.09524156 1.9184,2.83379354 2.89605,2.99289184 -0.62948,-3.6961522 -1.71088,-6.5161111 -1.757,-9.3545162 -2.85916,-5.9719485 -1.01223,0.797797 -3.32723,-2.5640183 -3.04362,-9.4859452 2.52252,-2.2020122 2.90066,-6.5091942 4.60694,6.6752098 7.23321,17.02812518 8.44374,21.314555 -0.92231,-5.22718472 -2.40953,-10.2929654 -4.22879,-15.19273 1.40422,0.5925829 -2.25735,-10.751814 1.82387,-3.23961 -4.3556,-16.013585 -18.62602,-30.978044 -31.75739,-37.996813 1.60251,1.468776 3.62928,3.313394 2.90527,3.603921 -6.53456,-3.885225 -5.38629,-4.191893 -6.32243,-5.833603 -5.3148,-2.165119 -5.66989,0.177545 -9.18619,0.0046 -10.03011,-5.321721 -11.96235,-4.756807 -21.19235,-8.086342 l 0.41965,1.964518 c -6.64293,-2.213541 -7.740477,0.834689 -14.918345,0.0046 -0.435791,-0.338948 2.30116,-1.235893 4.556205,-1.561007 -6.42388,0.848524 -6.12413,-1.268175 -12.409664,0.232883 1.547173,-1.086019 3.188883,-1.807725 4.839815,-2.730034 -5.236407,0.318196 -12.506506,3.04823 -10.26299,0.562608 -8.542884,3.813747 -23.717169,9.165443 -32.232384,17.150331 l -0.267469,-1.789279 c -3.901366,4.683023 -17.014291,13.986812 -18.058805,20.057909 l -1.044515,0.242106 c -2.026773,3.437906 -3.343369,7.332354 -4.952798,10.867102 -2.653943,4.52623 -3.892142,1.743164 -3.513996,2.453342 C 12.435631,-3.6365503 9.8370261,5.2591173 7.5981217,12.559191 9.1937158,14.945665 7.6373198,26.928761 8.2391263,36.518466 5.6197695,83.888241 41.483744,129.87686 80.686476,140.49263 c 5.745984,2.05906 14.288868,1.98527 21.556664,2.18818 -8.572863,-2.45334 -9.679633,-1.29815 -18.03575,-4.21034 -6.024982,-2.84071 -7.343883,-6.08032 -11.614173,-9.78569 l 1.690131,2.98597 c -8.369952,-2.96292 -4.867484,-3.66618 -11.678734,-5.82207 l 1.805419,-2.3542 c -2.713893,-0.20752 -7.187091,-4.57004 -8.40915,-6.9934 l -2.969834,0.11759 c -3.564723,-4.3948 -5.466985,-7.56985 -5.326333,-10.03011 l -0.959201,1.71089 C 45.659497,106.43408 33.623368,91.794733 39.867398,95.202664 38.707595,94.14662 37.165034,93.480252 35.493349,90.438939 l 1.27048,-1.45033 c -2.999809,-3.86678 -5.529241,-8.821883 -5.335556,-10.472816 1.602512,2.162814 2.713894,2.56863 3.816053,2.939859 C 27.656031,62.631331 27.229463,80.420361 21.485785,62.294689 l 1.212836,-0.09684 C 21.769395,60.78902 21.19987,59.269516 20.4528,57.77307 l 0.530327,-5.268688 C 15.523059,46.19579 19.456706,25.653669 20.247586,14.389974 20.789442,9.8107109 24.806097,4.9340035 27.856633,-2.7142416 l -1.858452,-0.3181965 c 3.5555,-6.1979146 20.295403,-24.9000299 28.052019,-23.9408289 3.756103,-4.717609 -0.74707,-0.01845 -1.482611,-1.203613 8.252357,-8.538273 10.846351,-6.031899 16.41479,-7.569848 6.001924,-3.562418 -5.1534,1.392686 -2.308078,-1.3581 10.38289,-2.649332 7.355412,-6.027287 20.89721,-7.371552 1.429578,0.811631 -3.313394,1.254339 -4.503172,2.308077 8.646644,-4.233397 27.367201,-3.267278 39.532461,2.347276 14.1044,6.596813 29.96119,26.087502 30.58836,44.4253051 l 0.71249,0.1913791 c -0.3597,7.2908508 1.11599,15.7230578 -1.44572,23.4658398 l 1.73163,-3.668483"
         id="path225"
         style="stroke-width:2.30577" /><path
         i:knockout="Off"
         fill="#a80030"
         d="m 68.634207,49.340863 -0.486518,2.414143 c 2.266574,3.078205 4.065076,6.412351 6.954208,8.810354 -2.079806,-4.055853 -3.622368,-5.732149 -6.46769,-11.224497"
         id="path227"
         style="stroke-width:2.30577" /><path
         i:knockout="Off"
         fill="#a80030"
         d="m 73.985903,49.133343 c -1.199001,-1.328124 -1.904567,-2.923719 -2.702364,-4.51009 0.760905,2.79229 2.319606,5.192599 3.765325,7.636717 l -1.062961,-3.126627"
         id="path229"
         style="stroke-width:2.30577" /><path
         i:knockout="Off"
         fill="#a80030"
         d="m 168.71623,28.542801 -0.50496,1.272786 c -0.92692,6.589896 -2.93525,13.110618 -6.00654,19.158658 3.3941,-6.380071 5.58228,-13.359642 6.5115,-20.431444"
         id="path231"
         style="stroke-width:2.30577" /><path
         i:knockout="Off"
         fill="#a80030"
         d="m 93.859351,-64.216093 c 2.326523,-0.85083 5.722925,-0.468071 8.199329,-1.028374 -3.223474,0.269775 -6.430802,0.431179 -9.596627,0.834689 l 1.397298,0.193685"
         id="path233"
         style="stroke-width:2.30577" /><path
         i:knockout="Off"
         fill="#a80030"
         d="m 12.071319,-20.724625 c 0.537245,4.966632 -3.7353503,6.896563 0.945366,3.617756 2.513292,-5.658364 -0.977647,-1.561008 -0.945366,-3.617756"
         id="path235"
         style="stroke-width:2.30577" /><path
         i:knockout="Off"
         fill="#a80030"
         d="M 6.565136,2.2731428 C 7.6465429,-1.0402512 7.8402278,-3.0278265 8.2529609,-4.9485344 5.271598,-1.1347879 6.8787209,-0.32085043 6.565136,2.2731428"
         id="path237"
         style="stroke-width:2.30577" /></g></g></svg>
